<svg xmlns="http://www.w3.org/2000/svg" width="1040" height="772" viewBox="0 0 1040 772">
<style>text{font-family:Arial,sans-serif;fill:#111}.lab{font-size:12px}.small{font-size:11px}.title{font-size:18px;font-weight:700}.axis{stroke:#bbb;stroke-width:1}.ci{stroke:#333;stroke-width:1.4}.pt{fill:#111}</style>
<text x="10" y="26" class="title">Expanded CAN-CCHD — study proportions</text>
<line x1="340" y1="45" x2="340" y2="727" class="axis"/><text x="340" y="754" text-anchor="middle" class="small">0%</text>
<line x1="470.0" y1="45" x2="470.0" y2="727" class="axis"/><text x="470.0" y="754" text-anchor="middle" class="small">25%</text>
<line x1="600.0" y1="45" x2="600.0" y2="727" class="axis"/><text x="600.0" y="754" text-anchor="middle" class="small">50%</text>
<line x1="730.0" y1="45" x2="730.0" y2="727" class="axis"/><text x="730.0" y="754" text-anchor="middle" class="small">75%</text>
<line x1="860" y1="45" x2="860" y2="727" class="axis"/><text x="860" y="754" text-anchor="middle" class="small">100%</text>
<text x="10" y="59" class="lab">Reddy 2018</text><line x1="353.00" y1="55" x2="860.00" y2="55" class="ci"/><circle cx="860.00" cy="55" r="3.3" class="pt"/><text x="875" y="59" class="small">1/1 (100.0%)</text>
<text x="10" y="83" class="lab">Kumar 2017</text><line x1="590.77" y1="79" x2="848.13" y2="79" class="ci"/><circle cx="765.45" cy="79" r="3.3" class="pt"/><text x="875" y="83" class="small">9/11 (81.8%)</text>
<text x="10" y="107" class="lab">SIBEN Rosario 2020</text><line x1="353.00" y1="103" x2="860.00" y2="103" class="ci"/><circle cx="860.00" cy="103" r="3.3" class="pt"/><text x="875" y="107" class="small">1/1 (100.0%)</text>
<text x="10" y="131" class="lab">SIBEN Barranquilla 2020</text><line x1="501.10" y1="127" x2="673.74" y2="127" class="ci"/><circle cx="586.32" cy="127" r="3.3" class="pt"/><text x="875" y="131" class="small">18/38 (47.4%)</text>
<text x="10" y="155" class="lab">Murni 2022</text><line x1="521.55" y1="151" x2="843.44" y2="151" class="ci"/><circle cx="730.00" cy="151" r="3.3" class="pt"/><text x="875" y="155" class="small">6/8 (75.0%)</text>
<text x="10" y="179" class="lab">Shah 2026</text><line x1="342.63" y1="175" x2="712.54" y2="175" class="ci"/><circle cx="444.00" cy="175" r="3.3" class="pt"/><text x="875" y="179" class="small">1/5 (20.0%)</text>
<text x="10" y="203" class="lab">Singh &amp; Chen 2022</text><line x1="551.35" y1="199" x2="606.53" y2="199" class="ci"/><circle cx="578.76" cy="199" r="3.3" class="pt"/><text x="875" y="203" class="small">163/355 (45.9%)</text>
<text x="10" y="227" class="lab">Cloete 2020</text><line x1="654.41" y1="223" x2="793.01" y2="223" class="ci"/><circle cx="732.89" cy="223" r="3.3" class="pt"/><text x="875" y="227" class="small">34/45 (75.6%)</text>
<text x="10" y="251" class="lab">Tekleab 2019</text><line x1="486.11" y1="247" x2="626.12" y2="247" class="ci"/><circle cx="553.57" cy="247" r="3.3" class="pt"/><text x="875" y="251" class="small">23/56 (41.1%)</text>
<text x="10" y="275" class="lab">Cawsey 2016</text><line x1="422.22" y1="271" x2="860.00" y2="271" class="ci"/><circle cx="860.00" cy="271" r="3.3" class="pt"/><text x="875" y="275" class="small">2/2 (100.0%)</text>
<text x="10" y="299" class="lab">Johnson 2014</text><line x1="353.00" y1="295" x2="860.00" y2="295" class="ci"/><circle cx="860.00" cy="295" r="3.3" class="pt"/><text x="875" y="299" class="small">1/1 (100.0%)</text>
<text x="10" y="323" class="lab">Diller 2018</text><line x1="430.42" y1="319" x2="602.74" y2="319" class="ci"/><circle cx="508.24" cy="319" r="3.3" class="pt"/><text x="875" y="323" class="small">11/34 (32.4%)</text>
<text x="10" y="347" class="lab">Cubells 2018</text><line x1="588.65" y1="343" x2="860.00" y2="343" class="ci"/><circle cx="860.00" cy="343" r="3.3" class="pt"/><text x="875" y="347" class="small">5/5 (100.0%)</text>
<text x="10" y="371" class="lab">Klausner 2017</text><line x1="546.77" y1="367" x2="860.00" y2="367" class="ci"/><circle cx="860.00" cy="367" r="3.3" class="pt"/><text x="875" y="371" class="small">4/4 (100.0%)</text>
<text x="10" y="395" class="lab">Jones 2016</text><line x1="776.23" y1="391" x2="860.00" y2="391" class="ci"/><circle cx="860.00" cy="391" r="3.3" class="pt"/><text x="875" y="395" class="small">21/21 (100.0%)</text>
<text x="10" y="419" class="lab">Hamilcikan 2018</text><line x1="450.24" y1="415" x2="788.76" y2="415" class="ci"/><circle cx="628.89" cy="415" r="3.3" class="pt"/><text x="875" y="419" class="small">5/9 (55.6%)</text>
<text x="10" y="443" class="lab">Arlettaz 2006</text><line x1="724.65" y1="439" x2="859.31" y2="439" class="ci"/><circle cx="832.63" cy="439" r="3.3" class="pt"/><text x="875" y="443" class="small">18/19 (94.7%)</text>
<text x="10" y="467" class="lab">Abu Lehyah 2025</text><line x1="572.58" y1="463" x2="611.42" y2="463" class="ci"/><circle cx="591.97" cy="463" r="3.3" class="pt"/><text x="875" y="467" class="small">345/712 (48.5%)</text>
<text x="10" y="491" class="lab">Florez-Munoz 2021</text><line x1="344.37" y1="487" x2="810.96" y2="487" class="ci"/><circle cx="513.33" cy="487" r="3.3" class="pt"/><text x="875" y="491" class="small">1/3 (33.3%)</text>
<text x="10" y="515" class="lab">El Idrissi Slitine 2020</text><line x1="500.11" y1="511" x2="803.18" y2="511" class="ci"/><circle cx="670.91" cy="511" r="3.3" class="pt"/><text x="875" y="515" class="small">7/11 (63.6%)</text>
<text x="10" y="539" class="lab">van Niekerk 2016</text><line x1="353.00" y1="535" x2="860.00" y2="535" class="ci"/><circle cx="860.00" cy="535" r="3.3" class="pt"/><text x="875" y="539" class="small">1/1 (100.0%)</text>
<text x="10" y="563" class="lab">Ozalkaya 2016</text><line x1="487.46" y1="559" x2="857.37" y2="559" class="ci"/><circle cx="756.00" cy="559" r="3.3" class="pt"/><text x="875" y="563" class="small">4/5 (80.0%)</text>
<text x="10" y="587" class="lab">Jawin 2015</text><line x1="731.53" y1="583" x2="860.00" y2="583" class="ci"/><circle cx="860.00" cy="583" r="3.3" class="pt"/><text x="875" y="587" class="small">13/13 (100.0%)</text>
<text x="10" y="611" class="lab">Turska-Kmiec 2012</text><line x1="551.09" y1="607" x2="762.24" y2="607" class="ci"/><circle cx="665.00" cy="607" r="3.3" class="pt"/><text x="875" y="611" class="small">15/24 (62.5%)</text>
<text x="10" y="635" class="lab">Ewer 2011</text><line x1="463.88" y1="631" x2="536.88" y2="631" class="ci"/><circle cx="498.64" cy="631" r="3.3" class="pt"/><text x="875" y="635" class="small">54/177 (30.5%)</text>
<text x="10" y="659" class="lab">Riede 2010</text><line x1="654.10" y1="655" x2="789.09" y2="655" class="ci"/><circle cx="730.00" cy="655" r="3.3" class="pt"/><text x="875" y="659" class="small">36/48 (75.0%)</text>
<text x="10" y="683" class="lab">de-Wahl Granelli 2009</text><line x1="616.72" y1="679" x2="732.43" y2="679" class="ci"/><circle cx="677.66" cy="679" r="3.3" class="pt"/><text x="875" y="683" class="small">50/77 (64.9%)</text>
<text x="10" y="707" class="lab">Meberg 2008</text><line x1="586.17" y1="703" x2="645.09" y2="703" class="ci"/><circle cx="615.78" cy="703" r="3.3" class="pt"/><text x="875" y="707" class="small">166/313 (53.0%)</text>
</svg>